:SAMPLES-PER-SECOND 30
:FULLY-SPECIFIED
:DEGREES
62
root  30.9336 39.464 28.9685 45.793 -85.8743 -50.2383
RightUpLeg  -6.03658 -11.8316 3.89596
RightLeg  20.9623 -1.63543 1.41263
RightFoot  -10.34 -0.0383964 -3.64024
RightToes  1.74622e-010 0 -3.6325e-017
Spine  6.90062 -0.480743 12.9942
Spine1  5.69039 1.29983 -2.48338
HEad  -8.77052 -16.3446 -1.64906
LeftShoulder1  8.30162 -11.7926 -47.3578
LeftArm  -4.72087 9.92277 -29.1205
LeftForeArm  29.092 -11.8661 -6.2809
LeftHand  -0.244104 0.0205437 5.32207
RightShoulder  6.20491 9.65981 40.9432
RightArm  5.23646 -4.09754 32.1442
RightForeArm  -3.93993 20.4657 5.50507
RightHand  -0.751489 0.563647 -14.7138
LeftUpLeg  -17.0756 4.38195 4.84578
LeftLeg  59.5572 2.76155 5.63891
LeftFoot  2.39409 0.394864 -3.38819
LeftToes  -3.34697e-010 -1.70107e-010 -9.05613e-011
63
root  29.3456 39.705 28.9423 45.6014 -86.9475 -49.8975
RightUpLeg  -2.03648 -10.0434 2.19223
RightLeg  18.2262 -2.43492 2.56812
RightFoot  -11.5149 -0.0827994 -3.43131
RightToes  1.74622e-010 0 -3.6325e-017
Spine  6.63629 0.172223 12.7051
Spine1  5.53912 2.10362 -3.84207
HEad  -8.48832 -17.283 -1.39866
LeftShoulder1  8.28461 -11.7394 -47.4263
LeftArm  -6.42609 13.1255 -28.5497
LeftForeArm  30.2982 -8.84309 -6.48275
LeftHand  -0.244104 0.0205437 5.32207
RightShoulder  6.16241 9.63488 40.7229
RightArm  7.14097 -1.13444 32.6645
RightForeArm  -5.14664 24.3915 5.39773
RightHand  -0.772589 0.610305 -15.0104
LeftUpLeg  -19.9806 5.26636 3.62146
LeftLeg  52.7768 2.89311 4.5437
LeftFoot  0.537019 0.299469 -2.93155
LeftToes  -3.34697e-010 -1.70107e-010 -9.05613e-011
64
root  27.7615 39.7928 28.9452 48.9795 -87.6126 -52.8953
RightUpLeg  1.35374 -8.99034 1.06915
RightLeg  16.051 -2.47257 3.54681
RightFoot  -12.7158 -0.122678 -3.06127
RightToes  1.74622e-010 0 -3.6325e-017
Spine  6.0684 0.659173 12.7509
Spine1  5.49181 2.68071 -5.08501
HEad  -8.3646 -17.7496 -1.22279
LeftShoulder1  8.29511 -11.7098 -47.5812
LeftArm  -6.73214 16.6838 -27.8376
LeftForeArm  30.3808 -7.12887 -6.34464
LeftHand  -0.244104 0.0205437 5.32207
RightShoulder  6.17099 9.65471 40.7177
RightArm  7.16587 1.79974 32.6426
RightForeArm  -3.5911 27.9917 6.23636
RightHand  -0.731991 0.315688 -14.9368
LeftUpLeg  -21.9067 6.7053 2.6889
LeftLeg  43.3063 2.9675 3.38481
LeftFoot  -1.06538 0.327009 -3.56014
LeftToes  -3.34697e-010 -1.70107e-010 -9.05613e-011
65
root  26.1471 39.7726 28.9749 60.0968 -88.035 -63.4115
RightUpLeg  4.39932 -8.53218 0.337462
RightLeg  14.1884 -1.98388 4.20863
RightFoot  -13.8592 -0.156437 -2.83656
RightToes  1.74622e-010 0 -3.6325e-017
Spine  4.93115 1.12553 13.0564
Spine1  5.88575 3.21343 -6.40698
HEad  -8.26624 -17.8791 -1.09971
LeftShoulder1  8.30339 -11.7285 -47.5702
LeftArm  -6.64809 20.544 -27.3416
LeftForeArm  30.1645 -6.47974 -6.18675
LeftHand  -0.244104 0.0205437 5.32207
RightShoulder  6.19929 9.71894 40.7048
RightArm  7.21114 4.42275 32.5099
RightForeArm  -2.07903 31.3554 6.99818
RightHand  -0.675422 -0.0635203 -14.7434
LeftUpLeg  -22.7574 9.01346 1.50888
LeftLeg  31.2938 2.00123 1.8702
LeftFoot  -1.45712 0.322706 -3.63781
LeftToes  -3.34697e-010 -1.70107e-010 -9.05613e-011
66
root  24.5322 39.727 29.0193 85.5959 -88.4424 -88.4388
RightUpLeg  7.64652 -8.38905 -0.489435
RightLeg  12.0728 -0.943103 4.59711
RightFoot  -14.8206 -0.179068 -2.60446
RightToes  1.74622e-010 0 -3.6325e-017
Spine  3.94068 1.64201 13.0978
Spine1  6.55092 3.86995 -7.7786
HEad  -8.33158 -17.8371 -0.942461
LeftShoulder1  8.26404 -11.7248 -47.3527
LeftArm  -6.60717 24.4335 -27.2705
LeftForeArm  29.8373 -6.46769 -6.08993
LeftHand  -0.244104 0.0205437 5.32207
RightShoulder  6.23222 9.80103 40.6654
RightArm  7.12577 6.56957 32.2961
RightForeArm  -0.89131 34.3107 7.72668
RightHand  -0.654942 -0.237956 -14.7667
LeftUpLeg  -22.2382 10.9412 0.464261
LeftLeg  17.4789 1.40085 -0.0493609
LeftFoot  -0.593448 0.331882 -3.4733
LeftToes  -3.34697e-010 -1.70107e-010 -9.05613e-011
67
root  22.9101 39.5646 29.1001 122.721 -88.3181 -125.576
RightUpLeg  10.9261 -8.75955 -1.59476
RightLeg  10.9655 1.02481 4.87364
RightFoot  -16.1085 -0.177502 -1.67931
RightToes  1.74622e-010 0 -3.6325e-017
Spine  3.87299 2.03638 13.0723
Spine1  6.93449 4.51738 -8.88851
HEad  -8.62942 -17.396 -0.678979
LeftShoulder1  8.18096 -11.6564 -47.0825
LeftArm  -6.67785 28.0454 -27.5541
LeftForeArm  29.4422 -6.65536 -6.00672
LeftHand  -0.244104 0.0205437 5.32207
RightShoulder  6.27685 9.87885 40.7229
RightArm  7.1771 8.35203 32.0209
RightForeArm  -0.224292 36.3764 8.28012
RightHand  -0.642996 -0.403633 -14.9657
LeftUpLeg  -20.351 7.41789 2.30984
LeftLeg  4.44807 8.2839 -3.30384
LeftFoot  0.379315 0.489888 -4.80477
LeftToes  -3.34697e-010 -1.70107e-010 -9.05613e-011
68
root  21.2091 39.2456 29.2404 136.471 -87.6747 -139.685
RightUpLeg  13.9249 -9.74402 -2.83841
RightLeg  11.6812 3.57274 5.08723
RightFoot  -17.5262 -0.138654 -0.358049
RightToes  1.74622e-010 0 -3.6325e-017
Spine  4.23956 2.16175 13.3524
Spine1  7.06136 4.90344 -9.69952
HEad  -8.99559 -16.4264 -0.37045
LeftShoulder1  8.09268 -11.5854 -46.7869
LeftArm  -6.98714 31.1228 -28.1094
LeftForeArm  29.1194 -6.64858 -5.85747
LeftHand  -0.244104 0.0205437 5.32207
RightShoulder  6.30959 9.91979 40.818
RightArm  7.36623 9.76633 31.9585
RightForeArm  -0.0611344 37.0991 8.4874
RightHand  -0.612303 -0.694509 -15.107
LeftUpLeg  -19.0774 4.17691 3.91529
LeftLeg  -3.46995 16.756 -6.61645
LeftFoot  0.140294 0.589669 -5.84313
LeftToes  -3.34697e-010 -1.70107e-010 -9.05613e-011
69
root  19.4125 38.9183 29.4235 136.984 -87.4476 -140.454
RightUpLeg  16.7191 -11.1203 -4.33028
RightLeg  13.0357 6.04331 5.04771
RightFoot  -18.2657 -0.076437 0.774425
RightToes  1.74622e-010 0 -3.6325e-017
Spine  4.06908 2.15252 13.3876
Spine1  7.5282 5.10277 -10.2454
HEad  -9.16036 -15.3394 -0.144636
LeftShoulder1  8.01561 -11.5467 -46.452
LeftArm  -7.48415 33.4508 -28.8377
LeftForeArm  28.8691 -6.13106 -5.63508
LeftHand  -0.244104 0.0205437 5.32207
RightShoulder  6.32216 9.91637 40.9176
RightArm  7.50932 10.3892 32.1129
RightForeArm  -0.193259 36.5836 8.34159
RightHand  -0.594618 -0.817273 -15.0556
LeftUpLeg  -19.4441 4.46993 3.11541
LeftLeg  -3.54152 21.1159 -7.38913
LeftFoot  -0.114785 0.350516 -3.59282
LeftToes  -3.34697e-010 -1.70107e-010 -9.05613e-011
70
root  17.5045 38.6359 29.6174 147.004 -87.605 -150.659
RightUpLeg  19.3187 -12.7369 -6.62299
RightLeg  14.8763 8.92962 4.72111
RightFoot  -18.5367 0.0647055 2.94187
RightToes  1.74622e-010 0 -3.6325e-017
Spine  3.38785 2.36443 12.2798
Spine1  8.24858 5.34733 -10.1723
HEad  -8.91034 -14.4711 0.0596467
LeftShoulder1  7.94022 -11.4601 -46.2761
LeftArm  -7.84499 34.9015 -29.3908
LeftForeArm  28.6411 -5.0886 -5.44073
LeftHand  -0.244104 0.0205437 5.32207
RightShoulder  6.38775 9.92964 41.3319
RightArm  7.67187 9.79326 32.0191
RightForeArm  -0.375518 35.1292 7.92817
RightHand  -0.63617 -0.459235 -14.9707
LeftUpLeg  -20.6128 4.77885 1.25903
LeftLeg  1.87231 22.7987 -5.30112
LeftFoot  2.15278 -0.234307 1.73464
LeftToes  -3.34697e-010 -1.70107e-010 -9.05613e-011
71
root  15.5295 38.3934 29.802 173.288 -87.5508 -177.383
RightUpLeg  20.8836 -13.3023 -9.37254
RightLeg  18.7594 11.5062 4.56281
RightFoot  -17.3881 0.267944 7.53487
RightToes  1.74622e-010 0 -3.6325e-017
Spine  2.94957 2.85283 9.8996
Spine1  8.5152 5.55959 -9.33327
HEad  -8.24396 -13.6198 0.498096
LeftShoulder1  7.87554 -11.2918 -46.4243
LeftArm  -7.85567 35.4185 -29.4612
LeftForeArm  28.5534 -3.97385 -5.35769
LeftHand  -0.244104 0.0205437 5.32207
RightShoulder  6.55452 10.0034 42.2425
RightArm  8.23977 8.17594 31.7084
RightForeArm  -0.97217 32.3158 7.17819
RightHand  -0.76144 0.411177 -15.2738
LeftUpLeg  -22.0769 9.57648 -2.89662
LeftLeg  9.73655 16.8429 -1.13168
LeftFoot  5.66278 -1.09086 7.09798
LeftToes  -3.34697e-010 -1.70107e-010 -9.05613e-011
